<mxfile host="app.diagrams.net" modified="2024-04-30T16:29:19.567Z" agent="Mozilla/5.0 (Windows NT 10.0; Win64; x64) AppleWebKit/537.36 (KHTML, like Gecko) Chrome/124.0.0.0 Safari/537.36" version="24.3.1" etag="3B91Lv9sc7KOoa3CO8te" type="github">
  <diagram name="PÃ¡gina-1" id="Jz2VVBZqlL8AEvOZYgbg">
    <mxGraphModel>
      <root>
        <mxCell id="0" />
        <mxCell id="1" parent="0" />
      </root>
    </mxGraphModel>
  </diagram>
</mxfile>
